<?xml version="1.0" encoding="iso-8859-1"?>
<!-- Uploaded to: SVG Repo, www.svgrepo.com, Generator: SVG Repo Mixer Tools -->
<!DOCTYPE svg PUBLIC "-//W3C//DTD SVG 1.1//EN" "http://www.w3.org/Graphics/SVG/1.1/DTD/svg11.dtd">
<svg fill="#000000" version="1.1" id="Capa_1" xmlns="http://www.w3.org/2000/svg" xmlns:xlink="http://www.w3.org/1999/xlink" 
	 width="800px" height="800px" viewBox="0 0 91.2 91.2" xml:space="preserve">
<g>
	<g>
		<path d="M84.2,38.6c-3.524,0-6.435,2.609-6.921,6H59.094c-0.248-3.007-1.481-5.803-3.541-8.024l0.072,0.072l13.954-13.954
			l-0.75-0.75L54.878,35.895c-2.231-2.094-5.053-3.35-8.089-3.601v-18.37h-0.021c3.401-0.477,6.021-3.391,6.021-6.924
			c0-3.866-3.134-7-7-7c-3.865,0-7,3.134-7,7c0,3.533,2.621,6.447,6.022,6.924h-0.022v18.357c-3.283,0.207-6.34,1.566-8.68,3.907
			c-2.277,2.277-3.631,5.231-3.893,8.412H14v1v1h18.203c0.197,3.139,1.459,6.062,3.613,8.356l-13.77,13.771
			c-0.994-0.849-2.23-1.332-3.552-1.332c-1.469,0-2.85,0.572-3.889,1.611c-2.144,2.145-2.144,5.633,0,7.777
			c1.039,1.039,2.42,1.609,3.889,1.609c1.47,0,2.851-0.571,3.89-1.61c1.039-1.039,1.611-2.42,1.611-3.89
			c0-1.256-0.44-2.435-1.213-3.403L36.573,55.7c2.274,2.077,5.142,3.293,8.216,3.485v18.09h0.022
			c-3.401,0.478-6.022,3.392-6.022,6.925c0,3.866,3.135,7,7,7c3.866,0,7-3.134,7-7c0-3.533-2.62-6.447-6.021-6.925h0.021V59.174
			c2.954-0.244,5.702-1.441,7.904-3.434l13.783,13.783l0.75-0.75L55.454,55c2.181-2.303,3.454-5.242,3.651-8.4h18.174
			c0.486,3.392,3.396,6,6.921,6c3.866,0,7-3.133,7-7C91.2,41.734,88.066,38.6,84.2,38.6z M57.945,47.987
			c-0.088,0.489-0.211,0.968-0.355,1.438C57.736,48.952,57.857,48.473,57.945,47.987z M21.677,76.076
			c-0.85,0.85-1.98,1.318-3.183,1.318s-2.332-0.469-3.182-1.317c-1.754-1.754-1.754-4.61,0-6.364c0.85-0.85,1.979-1.318,3.182-1.318
			s2.333,0.469,3.183,1.318c0.851,0.85,1.318,1.98,1.318,3.182C22.995,74.098,22.527,75.227,21.677,76.076z M45.256,54.221
			c2.139,0.098,4.242-0.608,5.872-1.982C49.499,53.612,47.409,54.322,45.256,54.221z M50.959,51.037
			c-1.415,1.414-3.298,2.193-5.304,2.193c-2.006,0-3.89-0.779-5.303-2.193c-1.414-1.414-2.193-3.297-2.193-5.303
			c0-2.005,0.778-3.889,2.192-5.303s3.298-2.192,5.304-2.192c2.006,0,3.89,0.779,5.304,2.192
			C53.883,43.354,53.883,48.112,50.959,51.037z M58.079,44.6L58.079,44.6c-0.175-1.925-0.774-3.818-1.836-5.51
			C57.285,40.745,57.902,42.625,58.079,44.6z M57.014,50.949c-0.221,0.479-0.47,0.943-0.75,1.393
			C56.545,51.891,56.795,51.426,57.014,50.949z M57.574,49.491c-0.151,0.479-0.334,0.95-0.542,1.407
			C57.241,50.438,57.424,49.969,57.574,49.491z"/>
		<circle cx="7" cy="45.6" r="7"/>
		<path d="M73.084,23.805c1.469,0,2.85-0.572,3.889-1.61c2.146-2.145,2.146-5.634,0-7.778c-1.039-1.039-2.42-1.611-3.89-1.611
			c-1.469,0-2.851,0.572-3.89,1.611c-1.038,1.039-1.61,2.42-1.61,3.889c0,1.468,0.572,2.849,1.61,3.889
			C70.232,23.233,71.614,23.805,73.084,23.805z M69.9,15.123c0.851-0.85,1.979-1.318,3.183-1.318s2.333,0.468,3.183,1.318
			c1.754,1.754,1.754,4.609,0,6.364c-0.85,0.85-1.979,1.317-3.182,1.317s-2.333-0.468-3.184-1.317
			c-0.85-0.851-1.317-1.981-1.317-3.182S69.051,15.974,69.9,15.123z"/>
		<path d="M73.084,67.395c-1.47,0-2.852,0.572-3.891,1.611c-1.038,1.038-1.61,2.42-1.61,3.889s0.572,2.851,1.61,3.89
			c1.039,1.039,2.421,1.61,3.891,1.61c1.471,0,2.852-0.572,3.889-1.61c2.145-2.144,2.146-5.634,0-7.778
			C75.936,67.967,74.555,67.395,73.084,67.395z M76.266,76.077c-0.85,0.851-1.979,1.317-3.182,1.317s-2.333-0.469-3.184-1.317
			c-0.85-0.851-1.317-1.979-1.317-3.183s0.468-2.332,1.317-3.183c0.851-0.85,1.979-1.317,3.184-1.317
			c1.202,0,2.332,0.469,3.182,1.317C78.02,71.467,78.02,74.322,76.266,76.077z"/>
		<path d="M18.494,23.805c1.173,0,2.281-0.378,3.212-1.053l13.896,13.896l0.75-0.75L22.503,22.049
			c0.956-1.022,1.492-2.339,1.492-3.743c0-1.469-0.572-2.851-1.611-3.89c-1.038-1.039-2.419-1.61-3.889-1.61
			c-1.47,0-2.852,0.572-3.89,1.61c-1.037,1.037-1.608,2.418-1.608,3.889c0,1.471,0.571,2.852,1.608,3.889
			C15.643,23.233,17.024,23.805,18.494,23.805z M15.312,15.123c0.85-0.85,1.979-1.317,3.183-1.317c1.202,0,2.332,0.468,3.182,1.317
			c0.851,0.85,1.318,1.98,1.318,3.183c0,1.201-0.469,2.331-1.318,3.182c-0.85,0.85-1.979,1.317-3.183,1.317
			c-1.202,0-2.332-0.468-3.182-1.317c-0.849-0.848-1.315-1.979-1.315-3.182S14.464,15.972,15.312,15.123z"/>
	</g>
</g>
</svg>